# xmcd
#
# Track frame offsets:
# 150
# 17427
# 34640
# 54297
# 70587
# 81485
# 93030
# 109205
# 128110
# 143745
# 159707
# 177725
# 194602
# 208602
#
# Disc length: 2999 seconds
#
#
# Revision: 0
# Processed by: cddbd v1.5.1PL2 Copyright (c) Steve Scherf et al.
# Submitted via: FreeRIP 2.942 
#
DISCID=bd0bb50e
DTITLE=Teixerinha - Ultima Tropeada
DYEAR=1900
DGENRE=Sertanejas
TTITLE0=Papai Noel
TTITLE1=Última Tropeada
TTITLE2=Foi Tu Que Mexeu
TTITLE3=Companheiros
TTITLE4=Os Dois Lados da Vida
TTITLE5=Quatro Anos de Ausencia
TTITLE6=Desafio do Martelo
TTITLE7=Tropeiro Velho
TTITLE8=Quando a Velhice Chegar
TTITLE9=Desiludido
TTITLE10=Na Paz de Deus
TTITLE11=Fim do Baile
TTITLE12=Chofer de Taxi
TTITLE13=Talvez Uma Canção
EXTD=
EXTT0=
EXTT1=
EXTT2=
EXTT3=
EXTT4=
EXTT5=
EXTT6=
EXTT7=
EXTT8=
EXTT9=
EXTT10=
EXTT11=
EXTT12=
EXTT13=
PLAYORDER=
